# xmcd
#
# Track frame offsets:
#	150
#	12739
#	25634
#	33285
#	45628
#	55379
#	66516
#	77787
#	87411
#	99100
#	108748
#	116639
#
# Disc length: 1684 seconds
#
# Revision: 1
# Processed by: cddbd v1.5.2PL0 Copyright (c) Steve Scherf et al.
# Submitted via: audiograbber 1.83.01
#
DISCID=9c06920c
DTITLE=Ralph Stanley and the Clinch Mountain Boys - Curly Ray Cline, the deputy
DYEAR=1988
DGENRE=Bluegrass
TTITLE0=Up jumped the devil
TTITLE1=Waltz of the wind
TTITLE2=Smokey Mountain rag
TTITLE3=Old Joe Clark
TTITLE4=I wonder why
TTITLE5=Cotton eyed Joe
TTITLE6=She'll be coming around the mountain
TTITLE7=The bee
TTITLE8=Adieu false heart
TTITLE9=Sugar foot rag
TTITLE10=Fire on the mountain
TTITLE11=Verdie let your bangs hang down
EXTD=
EXTT0=
EXTT1=
EXTT2=
EXTT3=
EXTT4=
EXTT5=
EXTT6=
EXTT7=
EXTT8=
EXTT9=
EXTT10=
EXTT11=
PLAYORDER=
